<svg id="visual" viewBox="0 0 900 675" width="900" height="675" xmlns="http://www.w3.org/2000/svg" xmlns:xlink="http://www.w3.org/1999/xlink" version="1.1"><rect x="0" y="0" width="900" height="675" fill="#001220"></rect><path d="M0 212L21.5 205.5C43 199 86 186 128.8 187.5C171.7 189 214.3 205 257.2 215.5C300 226 343 231 385.8 229.3C428.7 227.7 471.3 219.3 514.2 208.2C557 197 600 183 642.8 179C685.7 175 728.3 181 771.2 191.2C814 201.3 857 215.7 878.5 222.8L900 230L900 0L878.5 0C857 0 814 0 771.2 0C728.3 0 685.7 0 642.8 0C600 0 557 0 514.2 0C471.3 0 428.7 0 385.8 0C343 0 300 0 257.2 0C214.3 0 171.7 0 128.8 0C86 0 43 0 21.5 0L0 0Z" fill="#c62368"></path><path d="M0 196L21.5 191.5C43 187 86 178 128.8 181.5C171.7 185 214.3 201 257.2 205.5C300 210 343 203 385.8 196.7C428.7 190.3 471.3 184.7 514.2 190.3C557 196 600 213 642.8 213.2C685.7 213.3 728.3 196.7 771.2 190.2C814 183.7 857 187.3 878.5 189.2L900 191L900 0L878.5 0C857 0 814 0 771.2 0C728.3 0 685.7 0 642.8 0C600 0 557 0 514.2 0C471.3 0 428.7 0 385.8 0C343 0 300 0 257.2 0C214.3 0 171.7 0 128.8 0C86 0 43 0 21.5 0L0 0Z" fill="#d23464"></path><path d="M0 109L21.5 119.5C43 130 86 151 128.8 160C171.7 169 214.3 166 257.2 161.8C300 157.7 343 152.3 385.8 153C428.7 153.7 471.3 160.3 514.2 152.2C557 144 600 121 642.8 114.8C685.7 108.7 728.3 119.3 771.2 120.2C814 121 857 112 878.5 107.5L900 103L900 0L878.5 0C857 0 814 0 771.2 0C728.3 0 685.7 0 642.8 0C600 0 557 0 514.2 0C471.3 0 428.7 0 385.8 0C343 0 300 0 257.2 0C214.3 0 171.7 0 128.8 0C86 0 43 0 21.5 0L0 0Z" fill="#dc4561"></path><path d="M0 124L21.5 121.2C43 118.3 86 112.7 128.8 103.8C171.7 95 214.3 83 257.2 78.3C300 73.7 343 76.3 385.8 75.2C428.7 74 471.3 69 514.2 75.3C557 81.7 600 99.3 642.8 103.8C685.7 108.3 728.3 99.7 771.2 97C814 94.3 857 97.7 878.5 99.3L900 101L900 0L878.5 0C857 0 814 0 771.2 0C728.3 0 685.7 0 642.8 0C600 0 557 0 514.2 0C471.3 0 428.7 0 385.8 0C343 0 300 0 257.2 0C214.3 0 171.7 0 128.8 0C86 0 43 0 21.5 0L0 0Z" fill="#e5565e"></path><path d="M0 52L21.5 56.5C43 61 86 70 128.8 72.7C171.7 75.3 214.3 71.7 257.2 65.8C300 60 343 52 385.8 46.7C428.7 41.3 471.3 38.7 514.2 39C557 39.3 600 42.7 642.8 43.5C685.7 44.3 728.3 42.7 771.2 41.7C814 40.7 857 40.3 878.5 40.2L900 40L900 0L878.5 0C857 0 814 0 771.2 0C728.3 0 685.7 0 642.8 0C600 0 557 0 514.2 0C471.3 0 428.7 0 385.8 0C343 0 300 0 257.2 0C214.3 0 171.7 0 128.8 0C86 0 43 0 21.5 0L0 0Z" fill="#ec665c"></path></svg>